<svg width="452" height="281" viewBox="0 0 452 281" fill="none" xmlns="http://www.w3.org/2000/svg">
<g clip-path="url(#clip0)">
<rect width="452" height="281" rx="18" fill="url(#paint0_linear)"/>
<path d="M483.111 90.8296C492.889 105.922 482.662 125.939 464.703 126.86L327.351 133.908C309.393 134.83 297.171 115.965 305.352 99.9509L367.924 -22.5229C376.106 -38.5365 398.554 -39.6884 408.332 -24.5964L483.111 90.8296Z" stroke="white" stroke-opacity="0.42" stroke-width="0.558795"/>
<path d="M487.142 36.9588C500.854 57.8136 486.848 85.6915 461.931 87.139L297.511 96.6903C272.594 98.1378 255.454 72.0692 266.659 49.7668L340.597 -97.401C351.802 -119.703 382.948 -121.513 396.66 -100.658L487.142 36.9588Z" fill="url(#paint1_linear)"/>
<path d="M270.928 -19.6372C277.788 -32.1684 295.641 -32.5743 303.063 -20.368L336.891 35.2625C344.313 47.4688 335.738 63.1328 321.456 63.4576L256.365 64.9378C242.083 65.2626 232.805 50.0047 239.665 37.4735L270.928 -19.6372Z" fill="url(#paint2_linear)"/>
<circle cx="368" cy="233" r="22.5" fill="white" stroke="#11B87B"/>
<circle cx="397" cy="233" r="22.5" fill="white" stroke="#11B87B"/>
<path d="M50.1836 175.281C48.5664 175.281 47.2148 174.824 46.1289 173.91C45.0508 172.996 44.4688 171.82 44.3828 170.383H46.457C46.5508 171.281 46.9453 172.016 47.6406 172.586C48.3359 173.148 49.1914 173.43 50.207 173.43C51.3555 173.43 52.2891 173.07 53.0078 172.352C53.7344 171.633 54.0977 170.703 54.0977 169.562C54.0977 168.422 53.7344 167.488 53.0078 166.762C52.2891 166.027 51.3672 165.66 50.2422 165.66C49.4531 165.66 48.7383 165.828 48.0977 166.164C47.457 166.5 46.9648 166.965 46.6211 167.559H44.6406L45.5664 158.09H55.2461V159.965H47.3008L46.7852 165.473H46.832C47.2148 164.965 47.7383 164.566 48.4023 164.277C49.0742 163.988 49.8125 163.844 50.6172 163.844C52.2422 163.844 53.5781 164.379 54.625 165.449C55.6797 166.512 56.207 167.863 56.207 169.504C56.207 171.199 55.6445 172.586 54.5195 173.664C53.3945 174.742 51.9492 175.281 50.1836 175.281ZM59.7447 162.965C59.7447 161.488 60.2759 160.262 61.3384 159.285C62.4009 158.301 63.7291 157.809 65.3228 157.809C66.8306 157.809 68.108 158.258 69.1548 159.156C70.2017 160.055 70.7252 161.152 70.7252 162.449C70.7252 163.387 70.4673 164.289 69.9517 165.156C69.4361 166.023 68.4673 167.191 67.0455 168.66L62.7681 173.078V173.125H71.0064V175H59.8502V173.547L65.8033 167.277C66.9361 166.082 67.6861 165.176 68.0533 164.559C68.4283 163.941 68.6158 163.281 68.6158 162.578C68.6158 161.766 68.2877 161.074 67.6314 160.504C66.983 159.934 66.1939 159.648 65.2642 159.648C64.272 159.648 63.4439 159.965 62.7798 160.598C62.1158 161.23 61.7838 162.02 61.7838 162.965V162.977H59.7447V162.965ZM80.6964 175.281C79.0792 175.281 77.7277 174.824 76.6417 173.91C75.5636 172.996 74.9816 171.82 74.8956 170.383H76.9698C77.0636 171.281 77.4581 172.016 78.1534 172.586C78.8488 173.148 79.7042 173.43 80.7198 173.43C81.8683 173.43 82.8019 173.07 83.5206 172.352C84.2472 171.633 84.6105 170.703 84.6105 169.562C84.6105 168.422 84.2472 167.488 83.5206 166.762C82.8019 166.027 81.88 165.66 80.755 165.66C79.9659 165.66 79.2511 165.828 78.6105 166.164C77.9698 166.5 77.4777 166.965 77.1339 167.559H75.1534L76.0792 158.09H85.7589V159.965H77.8136L77.298 165.473H77.3448C77.7277 164.965 78.2511 164.566 78.9152 164.277C79.587 163.988 80.3253 163.844 81.13 163.844C82.755 163.844 84.0909 164.379 85.1378 165.449C86.1925 166.512 86.7198 167.863 86.7198 169.504C86.7198 171.199 86.1573 172.586 85.0323 173.664C83.9073 174.742 82.462 175.281 80.6964 175.281ZM90.2575 162.965C90.2575 161.488 90.7887 160.262 91.8512 159.285C92.9137 158.301 94.2419 157.809 95.8356 157.809C97.3434 157.809 98.6208 158.258 99.6677 159.156C100.715 160.055 101.238 161.152 101.238 162.449C101.238 163.387 100.98 164.289 100.465 165.156C99.9489 166.023 98.9802 167.191 97.5583 168.66L93.2809 173.078V173.125H101.519V175H90.363V173.547L96.3161 167.277C97.4489 166.082 98.1989 165.176 98.5661 164.559C98.9411 163.941 99.1286 163.281 99.1286 162.578C99.1286 161.766 98.8005 161.074 98.1442 160.504C97.4958 159.934 96.7067 159.648 95.777 159.648C94.7848 159.648 93.9567 159.965 93.2927 160.598C92.6286 161.23 92.2966 162.02 92.2966 162.965V162.977H90.2575V162.965ZM122.433 175V160.328H122.386L117.91 163.551V161.324L122.41 158.09H124.472V175H122.433ZM130.096 162.965C130.096 161.488 130.627 160.262 131.689 159.285C132.752 158.301 134.08 157.809 135.674 157.809C137.182 157.809 138.459 158.258 139.506 159.156C140.553 160.055 141.076 161.152 141.076 162.449C141.076 163.387 140.818 164.289 140.303 165.156C139.787 166.023 138.818 167.191 137.396 168.66L133.119 173.078V173.125H141.357V175H130.201V173.547L136.154 167.277C137.287 166.082 138.037 165.176 138.404 164.559C138.779 163.941 138.967 163.281 138.967 162.578C138.967 161.766 138.639 161.074 137.982 160.504C137.334 159.934 136.545 159.648 135.615 159.648C134.623 159.648 133.795 159.965 133.131 160.598C132.467 161.23 132.135 162.02 132.135 162.965V162.977H130.096V162.965ZM148.68 167.195V165.414H150.708C151.676 165.414 152.469 165.137 153.086 164.582C153.704 164.02 154.012 163.309 154.012 162.449C154.012 161.59 153.727 160.906 153.157 160.398C152.586 159.891 151.778 159.637 150.731 159.637C149.762 159.637 148.973 159.895 148.364 160.41C147.754 160.926 147.403 161.629 147.309 162.52H145.282C145.399 161.082 145.954 159.938 146.946 159.086C147.946 158.234 149.239 157.809 150.825 157.809C152.348 157.809 153.614 158.219 154.622 159.039C155.629 159.859 156.133 160.902 156.133 162.168C156.133 163.223 155.821 164.109 155.196 164.828C154.571 165.547 153.727 166 152.665 166.188V166.234C153.946 166.312 154.965 166.723 155.723 167.465C156.481 168.199 156.86 169.16 156.86 170.348C156.86 171.293 156.594 172.145 156.063 172.902C155.532 173.66 154.813 174.246 153.907 174.66C153 175.074 151.997 175.281 150.895 175.281C149.145 175.281 147.735 174.844 146.665 173.969C145.594 173.094 145.02 171.945 144.942 170.523H146.969C147.063 171.406 147.458 172.117 148.153 172.656C148.848 173.188 149.754 173.453 150.872 173.453C151.989 173.453 152.907 173.168 153.625 172.598C154.352 172.027 154.715 171.301 154.715 170.418C154.715 169.426 154.364 168.641 153.661 168.062C152.965 167.484 152.012 167.195 150.801 167.195H148.68ZM168.917 175V171.484H160.421V169.574C161.147 168.223 162.069 166.68 163.187 164.945C164.312 163.211 165.862 160.926 167.839 158.09H170.956V169.633H173.347V171.484H170.956V175H168.917ZM162.507 169.586V169.633H168.917V159.848H168.882C165.921 164.074 163.796 167.32 162.507 169.586ZM195.385 175.281C193.768 175.281 192.417 174.824 191.331 173.91C190.253 172.996 189.671 171.82 189.585 170.383H191.659C191.753 171.281 192.147 172.016 192.842 172.586C193.538 173.148 194.393 173.43 195.409 173.43C196.557 173.43 197.491 173.07 198.21 172.352C198.936 171.633 199.3 170.703 199.3 169.562C199.3 168.422 198.936 167.488 198.21 166.762C197.491 166.027 196.569 165.66 195.444 165.66C194.655 165.66 193.94 165.828 193.3 166.164C192.659 166.5 192.167 166.965 191.823 167.559H189.842L190.768 158.09H200.448V159.965H192.503L191.987 165.473H192.034C192.417 164.965 192.94 164.566 193.604 164.277C194.276 163.988 195.014 163.844 195.819 163.844C197.444 163.844 198.78 164.379 199.827 165.449C200.882 166.512 201.409 167.863 201.409 169.504C201.409 171.199 200.846 172.586 199.721 173.664C198.596 174.742 197.151 175.281 195.385 175.281ZM211.169 175.293C209.904 175.293 208.786 174.965 207.818 174.309C206.849 173.645 206.103 172.703 205.579 171.484C205.025 170.203 204.747 168.652 204.747 166.832C204.747 163.98 205.322 161.762 206.47 160.176C207.626 158.59 209.24 157.797 211.31 157.797C212.747 157.797 213.974 158.195 214.99 158.992C216.005 159.789 216.65 160.852 216.923 162.18H214.779C214.552 161.414 214.122 160.805 213.49 160.352C212.857 159.891 212.122 159.66 211.286 159.66C209.872 159.66 208.779 160.266 208.005 161.477C207.232 162.688 206.825 164.418 206.786 166.668H206.822C207.204 165.84 207.825 165.176 208.685 164.676C209.544 164.176 210.497 163.926 211.544 163.926C213.154 163.926 214.49 164.457 215.552 165.52C216.622 166.582 217.158 167.914 217.158 169.516C217.158 171.188 216.591 172.57 215.458 173.664C214.333 174.75 212.904 175.293 211.169 175.293ZM208.404 172.293C209.154 173.043 210.068 173.418 211.146 173.418C212.224 173.418 213.138 173.047 213.888 172.305C214.638 171.562 215.013 170.656 215.013 169.586C215.013 168.477 214.654 167.566 213.935 166.855C213.216 166.137 212.298 165.777 211.181 165.777C210.064 165.777 209.134 166.133 208.392 166.844C207.658 167.555 207.29 168.449 207.29 169.527C207.29 170.613 207.661 171.535 208.404 172.293ZM226.777 175.281C224.816 175.281 223.285 174.5 222.183 172.938C221.09 171.367 220.543 169.234 220.543 166.539C220.543 163.867 221.094 161.746 222.195 160.176C223.305 158.598 224.832 157.809 226.777 157.809C228.723 157.809 230.242 158.594 231.336 160.164C232.437 161.727 232.988 163.848 232.988 166.527C232.988 169.223 232.441 171.355 231.348 172.926C230.254 174.496 228.73 175.281 226.777 175.281ZM223.742 171.59C224.461 172.824 225.473 173.441 226.777 173.441C228.082 173.441 229.09 172.828 229.801 171.602C230.512 170.367 230.867 168.68 230.867 166.539C230.867 164.43 230.508 162.758 229.789 161.523C229.07 160.281 228.066 159.66 226.777 159.66C225.488 159.66 224.48 160.281 223.754 161.523C223.027 162.766 222.664 164.434 222.664 166.527C222.664 168.668 223.023 170.355 223.742 171.59ZM242.772 175.281C240.811 175.281 239.28 174.5 238.178 172.938C237.084 171.367 236.538 169.234 236.538 166.539C236.538 163.867 237.088 161.746 238.19 160.176C239.299 158.598 240.827 157.809 242.772 157.809C244.717 157.809 246.237 158.594 247.33 160.164C248.432 161.727 248.983 163.848 248.983 166.527C248.983 169.223 248.436 171.355 247.342 172.926C246.248 174.496 244.725 175.281 242.772 175.281ZM239.737 171.59C240.455 172.824 241.467 173.441 242.772 173.441C244.077 173.441 245.084 172.828 245.795 171.602C246.506 170.367 246.862 168.68 246.862 166.539C246.862 164.43 246.502 162.758 245.784 161.523C245.065 160.281 244.061 159.66 242.772 159.66C241.483 159.66 240.475 160.281 239.748 161.523C239.022 162.766 238.659 164.434 238.659 166.527C238.659 168.668 239.018 170.355 239.737 171.59ZM270.951 175.281C269.514 175.281 268.283 174.883 267.26 174.086C266.236 173.289 265.596 172.227 265.338 170.898H267.482C267.709 171.664 268.139 172.281 268.772 172.75C269.404 173.211 270.139 173.441 270.975 173.441C272.381 173.441 273.471 172.832 274.244 171.613C275.025 170.387 275.432 168.648 275.463 166.398H275.451H275.428C275.068 167.234 274.459 167.906 273.6 168.414C272.748 168.914 271.783 169.164 270.705 169.164C269.096 169.164 267.756 168.633 266.686 167.57C265.623 166.508 265.092 165.176 265.092 163.574C265.092 161.902 265.654 160.523 266.779 159.438C267.912 158.344 269.346 157.797 271.08 157.797C272.354 157.797 273.475 158.129 274.443 158.793C275.412 159.449 276.154 160.383 276.67 161.594C277.225 162.875 277.502 164.43 277.502 166.258C277.502 169.109 276.928 171.328 275.779 172.914C274.631 174.492 273.022 175.281 270.951 175.281ZM271.068 167.312C272.186 167.312 273.115 166.957 273.857 166.246C274.6 165.535 274.971 164.641 274.971 163.562C274.971 162.477 274.596 161.562 273.846 160.82C273.104 160.07 272.19 159.695 271.104 159.695C270.018 159.695 269.1 160.066 268.35 160.809C267.6 161.543 267.225 162.441 267.225 163.504C267.225 164.605 267.588 165.516 268.315 166.234C269.041 166.953 269.959 167.312 271.068 167.312ZM287.298 175.281C285.337 175.281 283.805 174.5 282.704 172.938C281.61 171.367 281.063 169.234 281.063 166.539C281.063 163.867 281.614 161.746 282.715 160.176C283.825 158.598 285.352 157.809 287.298 157.809C289.243 157.809 290.762 158.594 291.856 160.164C292.958 161.727 293.508 163.848 293.508 166.527C293.508 169.223 292.962 171.355 291.868 172.926C290.774 174.496 289.251 175.281 287.298 175.281ZM284.262 171.59C284.981 172.824 285.993 173.441 287.298 173.441C288.602 173.441 289.61 172.828 290.321 171.602C291.032 170.367 291.387 168.68 291.387 166.539C291.387 164.43 291.028 162.758 290.309 161.523C289.59 160.281 288.587 159.66 287.298 159.66C286.008 159.66 285.001 160.281 284.274 161.523C283.548 162.766 283.184 164.434 283.184 166.527C283.184 168.668 283.544 170.355 284.262 171.59ZM303.292 175.281C301.331 175.281 299.8 174.5 298.698 172.938C297.605 171.367 297.058 169.234 297.058 166.539C297.058 163.867 297.609 161.746 298.71 160.176C299.82 158.598 301.347 157.809 303.292 157.809C305.238 157.809 306.757 158.594 307.851 160.164C308.952 161.727 309.503 163.848 309.503 166.527C309.503 169.223 308.956 171.355 307.863 172.926C306.769 174.496 305.245 175.281 303.292 175.281ZM300.257 171.59C300.976 172.824 301.988 173.441 303.292 173.441C304.597 173.441 305.605 172.828 306.316 171.602C307.027 170.367 307.382 168.68 307.382 166.539C307.382 164.43 307.023 162.758 306.304 161.523C305.585 160.281 304.581 159.66 303.292 159.66C302.003 159.66 300.995 160.281 300.269 161.523C299.542 162.766 299.179 164.434 299.179 166.527C299.179 168.668 299.538 170.355 300.257 171.59ZM319.287 175.281C317.326 175.281 315.795 174.5 314.693 172.938C313.599 171.367 313.052 169.234 313.052 166.539C313.052 163.867 313.603 161.746 314.705 160.176C315.814 158.598 317.342 157.809 319.287 157.809C321.232 157.809 322.752 158.594 323.845 160.164C324.947 161.727 325.498 163.848 325.498 166.527C325.498 169.223 324.951 171.355 323.857 172.926C322.763 174.496 321.24 175.281 319.287 175.281ZM316.252 171.59C316.97 172.824 317.982 173.441 319.287 173.441C320.592 173.441 321.599 172.828 322.31 171.602C323.021 170.367 323.377 168.68 323.377 166.539C323.377 164.43 323.017 162.758 322.299 161.523C321.58 160.281 320.576 159.66 319.287 159.66C317.998 159.66 316.99 160.281 316.263 161.523C315.537 162.766 315.174 164.434 315.174 166.527C315.174 168.668 315.533 170.355 316.252 171.59Z" fill="white"/>
<path d="M47.1768 206.157C46.0602 206.157 45.1852 205.701 44.5518 204.79C43.9183 203.874 43.6016 202.632 43.6016 201.064C43.6016 199.506 43.9206 198.269 44.5586 197.353C45.1966 196.437 46.0693 195.979 47.1768 195.979C48.2887 195.979 49.1615 196.437 49.7949 197.353C50.4284 198.264 50.7451 199.499 50.7451 201.058C50.7451 202.625 50.4284 203.867 49.7949 204.783C49.1615 205.699 48.2887 206.157 47.1768 206.157ZM45.2422 204.188C45.707 204.954 46.3519 205.337 47.1768 205.337C48.0016 205.337 48.6465 204.954 49.1113 204.188C49.5762 203.423 49.8086 202.382 49.8086 201.064C49.8086 199.757 49.5739 198.72 49.1045 197.954C48.6396 197.188 47.9971 196.806 47.1768 196.806C46.361 196.806 45.7184 197.191 45.249 197.961C44.7796 198.731 44.5449 199.763 44.5449 201.058C44.5449 202.379 44.7773 203.423 45.2422 204.188ZM55.4132 206V197.141H55.3859C55.3221 197.182 54.8914 197.48 54.0939 198.036C53.2964 198.588 52.8452 198.895 52.7404 198.959V197.961C52.8224 197.911 53.2599 197.61 54.0529 197.059C54.8459 196.507 55.2948 196.2 55.3996 196.136H56.3156V206H55.4132ZM59.637 208.078H58.8441L62.3304 196.136H63.1234L59.637 208.078ZM64.7495 198.897C64.754 198.059 65.0548 197.364 65.6518 196.812C66.2534 196.257 67.0054 195.979 67.9077 195.979C68.769 195.979 69.4959 196.238 70.0884 196.758C70.6808 197.277 70.977 197.915 70.977 198.672C70.977 199.21 70.8266 199.731 70.5259 200.237C70.2296 200.739 69.6714 201.415 68.8511 202.268L66.103 205.139V205.166H71.23V206H64.7973V205.344L68.2837 201.659C68.9901 200.916 69.4595 200.349 69.6919 199.957C69.9289 199.565 70.0473 199.155 70.0473 198.727C70.0473 198.189 69.8377 197.733 69.4184 197.359C68.9992 196.986 68.4865 196.799 67.8804 196.799C67.2469 196.799 66.7182 196.999 66.2944 197.4C65.8751 197.797 65.661 198.296 65.6518 198.897V198.904H64.7495V198.897ZM73.4645 198.897C73.4691 198.059 73.7698 197.364 74.3668 196.812C74.9684 196.257 75.7204 195.979 76.6227 195.979C77.484 195.979 78.2109 196.238 78.8034 196.758C79.3958 197.277 79.692 197.915 79.692 198.672C79.692 199.21 79.5416 199.731 79.2409 200.237C78.9446 200.739 78.3864 201.415 77.5661 202.268L74.818 205.139V205.166H79.945V206H73.5123V205.344L76.9987 201.659C77.7051 200.916 78.1745 200.349 78.4069 199.957C78.6439 199.565 78.7623 199.155 78.7623 198.727C78.7623 198.189 78.5527 197.733 78.1334 197.359C77.7142 196.986 77.2015 196.799 76.5954 196.799C75.9619 196.799 75.4332 196.999 75.0094 197.4C74.5901 197.797 74.376 198.296 74.3668 198.897V198.904H73.4645V198.897Z" fill="white"/>
<path d="M416.676 24.918C419.184 29.3073 422.696 40.4688 416.676 49.9999" stroke="#11B87B" stroke-width="2"/>
<path d="M411.032 26.1719C413.871 29.9028 417.846 39.3901 411.032 47.4915" stroke="#11B87B" stroke-width="2"/>
<path d="M406.017 28.6797C407.91 31.7522 410.56 39.5653 406.017 46.2371" stroke="#11B87B" stroke-width="2"/>
<path d="M401 32.4424C403.508 36.2047 403.508 39.967 401 43.7293" stroke="#11B87B" stroke-width="2"/>
<rect x="43" y="98.3633" width="50" height="38" rx="6.81818" fill="#F9FBFA"/>
<path d="M93 117.363C78.4545 117.363 68 111.775 68 98.3633C68 111.775 57.7727 117.363 43 117.363C57.7727 117.363 68 120.716 68 136.363C68 120.716 78.2273 117.363 93 117.363Z" stroke="#C3CCCA" stroke-width="1.13636"/>
</g>
<defs>
<linearGradient id="paint0_linear" x1="226" y1="0" x2="188.156" y2="287.85" gradientUnits="userSpaceOnUse">
<stop stop-color="#01B16B"/>
<stop offset="0.967484" stop-color="#01B16B" stop-opacity="0.5"/>
</linearGradient>
<linearGradient id="paint1_linear" x1="387.659" y1="95.4452" x2="367.954" y2="-144.301" gradientUnits="userSpaceOnUse">
<stop stop-color="#F1F6FF"/>
<stop offset="1" stop-color="#FCFCFC"/>
</linearGradient>
<linearGradient id="paint2_linear" x1="286.363" y1="-47.8323" x2="258.242" y2="101.88" gradientUnits="userSpaceOnUse">
<stop stop-color="#01B16B"/>
<stop offset="0.967484" stop-color="#01B16B" stop-opacity="0.5"/>
</linearGradient>
<clipPath id="clip0">
<rect width="452" height="281" fill="white"/>
</clipPath>
</defs>
</svg>
