<svg width="319" height="843" viewBox="0 0 319 843" fill="none" xmlns="http://www.w3.org/2000/svg">
<path d="M-226.76 243.303C-238.691 204.29 -203.91 166.991 -164.153 176.166L100.826 237.319C140.582 246.494 155.496 295.262 127.671 325.1L-57.7859 523.979C-85.611 553.818 -135.306 542.349 -147.238 503.335L-226.76 243.303Z" fill="url(#paint0_linear)"/>
<path d="M-247.417 309.346C-253.742 269.432 -214.482 237.64 -176.749 252.12L113.529 363.518C151.262 377.999 159.169 427.892 127.761 453.325L-113.856 648.983C-145.264 674.417 -192.431 656.316 -198.756 616.402L-247.417 309.346Z" stroke="white" stroke-opacity="0.42"/>
<path d="M33.3193 463.145C27.5795 471.342 15.1178 470.252 10.8883 461.182L-9.24268 418.013C-13.4722 408.943 -6.29748 398.696 3.67185 399.569L51.122 403.72C61.0913 404.592 66.3782 415.929 60.6385 424.127L33.3193 463.145Z" fill="#01B16B" fill-opacity="0.86"/>
<defs>
<linearGradient id="paint0_linear" x1="-253.605" y1="155.522" x2="54.4391" y2="594.483" gradientUnits="userSpaceOnUse">
<stop stop-color="white"/>
<stop offset="0.967484" stop-color="white" stop-opacity="0.5"/>
</linearGradient>
</defs>
</svg>
