<svg width="174" height="483" viewBox="0 0 174 483" fill="none" xmlns="http://www.w3.org/2000/svg">
<path d="M-0.314269 435.35C-9.87136 453.257 -35.2296 454.103 -45.9591 436.873L-166.16 243.846C-176.889 226.615 -164.943 204.231 -144.656 203.554L82.6107 195.971C102.897 195.294 116.309 216.832 106.752 234.739L-0.314269 435.35Z" stroke="#E5E5E5" stroke-width="0.958825"/>
<path d="M74.5001 252.61C72.0474 258.784 63.8313 259.987 59.7113 254.776L40.9341 231.027C36.814 225.816 39.88 218.099 46.4528 217.137L76.4085 212.75C82.9813 211.787 88.1314 218.301 85.6786 224.474L74.5001 252.61Z" fill="#01B16B"/>
<path d="M22.698 318.401C15.0672 337.607 -10.4938 341.351 -23.3117 325.139L-148.541 166.753C-161.359 150.541 -151.821 126.533 -131.372 123.538L68.4096 94.2792C88.8584 91.2844 104.881 111.549 97.2499 130.756L22.698 318.401Z" fill="url(#paint0_linear)"/>
<defs>
<linearGradient id="paint0_linear" x1="5.52865" y1="361.616" x2="27.3819" y2="15.1151" gradientUnits="userSpaceOnUse">
<stop stop-color="#01B16B"/>
<stop offset="0.967484" stop-color="#01B16B" stop-opacity="0.5"/>
</linearGradient>
</defs>
</svg>
