<svg width="323" height="300" viewBox="0 0 323 300" fill="none" xmlns="http://www.w3.org/2000/svg">
<path d="M193.273 -38.0125C213.493 -36.2341 224.205 -13.234 212.555 3.38765L82.0418 189.598C70.3918 206.219 45.117 203.996 36.5472 185.596L-59.4588 -20.5363C-68.0286 -38.9363 -53.4661 -59.7134 -33.2463 -57.9351L193.273 -38.0125Z" stroke="#E5E5E5" stroke-width="0.958825"/>
<path d="M76.6559 -13.3728C97.3167 -13.8758 110.774 8.17581 100.879 26.3201L4.2087 203.587C-5.68611 221.731 -31.5121 222.36 -42.2781 204.718L-147.46 32.3659C-158.226 14.7246 -145.858 -7.9557 -125.197 -8.45869L76.6559 -13.3728Z" fill="#01B16B"/>
<path d="M-4.16876 -35.26C2.47221 -35.4217 6.79784 -28.3337 3.61737 -22.5016L-10.8777 4.07819C-14.0581 9.91027 -22.3593 10.1124 -25.8198 4.44195L-41.5911 -21.401C-45.0516 -27.0714 -41.076 -34.3615 -34.435 -34.5232L-4.16876 -35.26Z" fill="#01B16B"/>
</svg>
