<svg width="382" height="300" viewBox="0 0 382 300" fill="none" xmlns="http://www.w3.org/2000/svg">
<path d="M238.768 206.145C220.397 211.86 202.728 195.544 206.964 176.777L256.455 -42.4944C260.691 -61.2621 283.656 -68.4063 297.791 -55.3539L462.94 97.1425C477.075 110.195 471.78 133.654 453.409 139.37L238.768 206.145Z" stroke="#E5E5E5" stroke-width="1.21918"/>
<g filter="url(#filter0_d)">
<path d="M254.884 265.904C236.256 272.34 217.645 256.197 221.385 236.846L264.043 16.1435C267.783 -3.20736 291.068 -11.2529 305.957 1.66161L475.762 148.955C490.65 161.87 485.975 186.058 467.347 192.495L254.884 265.904Z" fill="white"/>
</g>
<path d="M347.048 255.175C335.516 259.16 323.995 249.166 326.311 237.187L343.132 150.156C345.447 138.177 359.862 133.196 369.079 141.191L436.039 199.274C445.256 207.269 442.362 222.243 430.83 226.227L347.048 255.175Z" fill="#01B16B"/>
<defs>
<filter id="filter0_d" x="215.567" y="-9.95878" width="286.004" height="294.274" filterUnits="userSpaceOnUse" color-interpolation-filters="sRGB">
<feFlood flood-opacity="0" result="BackgroundImageFix"/>
<feColorMatrix in="SourceAlpha" type="matrix" values="0 0 0 0 0 0 0 0 0 0 0 0 0 0 0 0 0 0 127 0"/>
<feMorphology radius="1.45493" operator="dilate" in="SourceAlpha" result="effect1_dropShadow"/>
<feOffset dx="5.81973" dy="5.81973"/>
<feGaussianBlur stdDeviation="4.84977"/>
<feColorMatrix type="matrix" values="0 0 0 0 0.635294 0 0 0 0 0.705882 0 0 0 0 0.776471 0 0 0 0.3 0"/>
<feBlend mode="normal" in2="BackgroundImageFix" result="effect1_dropShadow"/>
<feBlend mode="normal" in="SourceGraphic" in2="effect1_dropShadow" result="shape"/>
</filter>
</defs>
</svg>
