<svg width="20" height="20" viewBox="0 0 20 20" fill="none" xmlns="http://www.w3.org/2000/svg">
<path d="M16.3442 11.0668L18.1305 9.25442C18.3098 9.07255 18.4126 8.83041 18.417 8.57509C18.4622 5.97924 18.4863 1.41495 18.2622 1.18754C18.0382 0.960299 13.4577 0.9846 10.8469 1.0303C10.5867 1.03486 10.3403 1.1416 10.1576 1.32697L1.69047 9.91721C1.30753 10.3057 1.30753 10.9297 1.69047 11.3182L8.13014 17.8515C8.51268 18.2397 9.13585 18.2491 9.52998 17.8728L11.3278 16.1561" stroke="#11B87B"/>
<path d="M18.5 14.8084C18.5 16.8538 16.8675 18.4996 14.8689 18.4996C12.8703 18.4996 11.2378 16.8538 11.2378 14.8084C11.2378 12.763 12.8703 11.1172 14.8689 11.1172C16.8675 11.1172 18.5 12.763 18.5 14.8084Z" stroke="#11B87B"/>
<line x1="15.0737" y1="12.7148" x2="15.0737" y2="16.906" stroke="#11B87B"/>
<line x1="12.8032" y1="14.6094" x2="16.9343" y2="14.6094" stroke="#11B87B"/>
<path d="M16.4342 4.03299C16.4342 4.59036 15.9907 5.02984 15.4588 5.02984C14.9269 5.02984 14.4834 4.59036 14.4834 4.03299C14.4834 3.47561 14.9269 3.03613 15.4588 3.03613C15.9907 3.03613 16.4342 3.47561 16.4342 4.03299Z" stroke="#11B87B"/>
</svg>
