<svg width="28" height="28" viewBox="0 0 28 28" fill="none" xmlns="http://www.w3.org/2000/svg">
<g clip-path="url(#clip0)">
<path d="M18.7768 3.91997L20.3034 5.4922C20.4896 5.68406 20.745 5.79331 21.0124 5.79554L21.559 5.80011C22.0573 5.80428 22.4765 6.17469 22.5419 6.66869L24.8968 24.4365C24.9639 24.9427 24.6388 25.4181 24.1428 25.5393L17.6661 27.1217M18.7768 3.91997L17.6661 27.1217M18.7768 3.91997L16.9357 4.83302M17.6661 27.1217L3.93586 24.3952C3.42154 24.2931 3.07346 23.811 3.13831 23.2907L4.90316 9.13103C4.9545 8.71915 5.25493 8.3818 5.65814 8.28329L8.66273 7.54919M15.0947 5.74607C15.0028 4.38497 14.7864 1.22732 13.3002 1.08887C11.4425 0.915819 9.30518 4.83267 8.66273 7.54919M15.0947 5.74607L10.5038 6.63614M15.0947 5.74607L16.9357 4.83302M8.66273 7.54919L10.5038 6.63614M10.5038 6.63614C11.1915 4.67893 13.4979 0.959965 15.1257 2.03257C16.8207 3.14942 16.6357 3.65641 16.9357 4.83302" stroke="#01B16B" stroke-width="2"/>
</g>
<defs>
<clipPath id="clip0">
<rect width="28" height="28" fill="white"/>
</clipPath>
</defs>
</svg>
