<svg width="28" height="28" viewBox="0 0 28 28" fill="none" xmlns="http://www.w3.org/2000/svg">
<g clip-path="url(#clip0)">
<path d="M27.0003 6.47368L20.5733 1V4.38684C17.4572 4.35263 10.2901 4.30474 6.55078 4.38684C2.81145 4.46895 2.07138 6.90702 2.16875 8.11579V11.9474H6.55078V9.75789C6.55078 8.8821 7.32981 8.66316 7.71932 8.66316H20.5733V11.6737L27.0003 6.47368Z" stroke="#01B16B" stroke-width="2"/>
<path d="M0.999744 21.5263L7.42672 27V23.6132C10.5428 23.6474 17.7099 23.6953 21.4492 23.6132C25.1885 23.5311 25.9286 21.093 25.8312 19.8842V16.0526H21.4492V18.2421C21.4492 19.1179 20.6702 19.3368 20.2807 19.3368H7.42672V16.3263L0.999744 21.5263Z" stroke="#01B16B" stroke-width="2"/>
</g>
<defs>
<clipPath id="clip0">
<rect width="28" height="28" fill="white"/>
</clipPath>
</defs>
</svg>
