<svg width="28" height="28" viewBox="0 0 28 28" fill="none" xmlns="http://www.w3.org/2000/svg">
<g clip-path="url(#clip0)">
<path d="M23.5323 3.52427C19.1163 4.53398 15.0013 2.26214 13.4958 1C9.23029 3.7767 6.72121 3.7767 3.45932 3.52427C2.20476 11.6019 3.7639 17.002 5.21571 19.6796C6.72124 22.4563 11.9904 26.2427 13.4958 27C14.7504 26.2427 18.765 23.9709 21.776 19.6796C24.7869 15.3883 24.0342 7.56311 23.5323 3.52427Z" stroke="#01B16B" stroke-width="2"/>
<path fill-rule="evenodd" clip-rule="evenodd" d="M11.7324 11.8545C10.6279 11.8545 9.73242 12.7499 9.73242 13.8545V16.4176C9.73242 17.5222 10.6279 18.4176 11.7324 18.4176H15.7616C16.8662 18.4176 17.7616 17.5222 17.7616 16.4176V13.8545C17.7616 12.7499 16.8662 11.8545 15.7616 11.8545H11.7324ZM12.7433 14.3788C12.7433 13.8212 13.1927 13.3691 13.747 13.3691C14.3013 13.3691 14.7506 13.8212 14.7506 14.3788C14.7506 14.8143 14.4766 15.1854 14.0926 15.3271L14.7506 16.9031H12.7433L13.4014 15.3271C13.0173 15.1854 12.7433 14.8143 12.7433 14.3788Z" fill="#01B16B"/>
<path d="M10.9868 12.6038C10.9868 10.0795 10.9869 8.3125 13.7469 8.3125C16.507 8.3125 16.256 10.3319 16.256 12.6038" stroke="#01B16B" stroke-width="2"/>
</g>
<defs>
<clipPath id="clip0">
<rect width="28" height="28" fill="white"/>
</clipPath>
</defs>
</svg>
