<svg width="27" height="21" viewBox="0 0 27 21" fill="none" xmlns="http://www.w3.org/2000/svg">
<path fill-rule="evenodd" clip-rule="evenodd" d="M1.19026 2.05H1.19026H1.19025C0.820068 2.07856 0.398979 2.11104 0 2.11104L1.4318e-05 0.111042C0.314679 0.111044 0.627604 0.0870185 0.98016 0.0599506L0.980172 0.0599496C1.10223 0.0505782 1.22905 0.040842 1.36233 0.0316119C1.84367 -0.00172267 2.40232 -0.0270599 2.9433 0.0547667C3.50105 0.139131 4.09133 0.34434 4.59457 0.808581C5.09568 1.27085 5.42108 1.90743 5.60339 2.69306L5.60633 2.70572L5.60894 2.71845L7.4536 11.7244C7.51758 11.9304 7.92374 12.7675 9.25855 12.7675H9.27006H9.28168H9.29343H9.30529H9.31727H9.32936H9.34158H9.3539H9.36635H9.3789H9.39158H9.40436H9.41726H9.43027H9.4434H9.45664H9.46999H9.48345H9.49702H9.51071H9.5245H9.5384H9.55242H9.56654H9.58077H9.59511H9.60955H9.62411H9.63877H9.65354H9.66841H9.68339H9.69847H9.71366H9.72896H9.74435H9.75985H9.77546H9.79117H9.80698H9.82289H9.8389H9.85501H9.87123H9.88754H9.90396H9.92047H9.93708H9.95379H9.9706H9.98751H10.0045H10.0216H10.0388H10.0561H10.0735H10.091H10.1086H10.1262H10.144H10.1619H10.1798H10.1979H10.216H10.2342H10.2526H10.271H10.2895H10.3081H10.3268H10.3455H10.3644H10.3833H10.4024H10.4215H10.4407H10.46H10.4794H10.4989H10.5184H10.5381H10.5578H10.5776H10.5975H10.6175H10.6376H10.6577H10.6779H10.6982H10.7186H10.7391H10.7596H10.7803H10.801H10.8218H10.8427H10.8636H10.8846H10.9057H10.9269H10.9482H10.9695H10.9909H11.0124H11.034H11.0556H11.0773H11.0991H11.1209H11.1429H11.1649H11.1869H11.2091H11.2313H11.2536H11.276H11.2984H11.3209H11.3434H11.3661H11.3888H11.4116H11.4344H11.4573H11.4803H11.5033H11.5264H11.5496H11.5728H11.5961H11.6195H11.6429H11.6664H11.69H11.7136H11.7373H11.761H11.7848H11.8087H11.8326H11.8566H11.8806H11.9047H11.9289H11.9531H11.9774H12.0017H12.0261H12.0506H12.0751H12.0996H12.1242H12.1489H12.1736H12.1984H12.2232H12.2481H12.2731H12.2981H12.3231H12.3482H12.3733H12.3985H12.4238H12.4491H12.4744H12.4998H12.5253H12.5508H12.5763H12.6019H12.6275H12.6532H12.6789H12.7047H12.7305H12.7564H12.7823H12.8082H12.8342H12.8603H12.8863H12.9125H12.9386H12.9648H12.9911H13.0174H13.0437H13.0701H13.0965H13.1229H13.1494H13.1759H13.2025H13.2291H13.2557H13.2824H13.3091H13.3359H13.3626H13.3894H13.4163H13.4432H13.4701H13.497H13.524H13.551H13.5781H13.6052H13.6323H13.6594H13.6866H13.7138H13.741H13.7683H13.7955H13.8229H13.8502H13.8776H13.905H13.9324H13.9598H13.9873H14.0148H14.0423H14.0699H14.0974H14.125H14.1527H14.1803H14.208H14.2356H14.2634H14.2911H14.3188H14.3466H14.3744H14.4022H14.43H14.4579H14.4857H14.5136H14.5415H14.5694H14.5973H14.6253H14.6533H14.6812H14.7092H14.7372H14.7652H14.7933H14.8213H14.8494H14.8775H14.9055H14.9336H14.9617H14.9898H15.018H15.0461H15.0743H15.1024H15.1306H15.1587H15.1869H15.2151H15.2433H15.2715H15.2997H15.3279H15.3561H15.3843H15.4125H15.4408H15.469H15.4972H15.5255H15.5537H15.5819H15.6102H15.6384H15.6667H15.6949H15.7231H15.7514H15.7796H15.8079H15.8361H15.8643H15.8926H15.9208H15.949H15.9772H16.0054H16.0336H16.0618H16.09H16.1182H16.1464H16.1746H16.2028H16.2309H16.2591H16.2872H16.3154H16.3435H16.3716H16.3997H16.4278H16.4559H16.4839H16.512H16.54H16.5681H16.5961H16.6241H16.6521H16.6801H16.708H16.736H16.7639H16.7918H16.8197H16.8476H16.8755H16.9033H16.9311H16.9589H16.9867H17.0145H17.0422H17.07H17.0977H17.1254H17.153H17.1807H17.2083H17.2359H17.2635H17.291H17.3185H17.346H17.3735H17.4009H17.4284H17.4558H17.4831H17.5105H17.5378H17.5651H17.5923H17.6196H17.6468H17.6739H17.7011H17.7282H17.7553H17.7823H17.8093H17.8363H17.8632H17.8902H17.917H17.9439H17.9707H17.9975H18.0242H18.0509H18.0776H18.1042H18.1308H18.1574H18.1839H18.2104H18.2369H18.2633H18.2896H18.316H18.3423H18.3685H18.3947H18.4209H18.447H18.4731H18.4991H18.5251H18.5511H18.577H18.6028H18.6287H18.6544H18.6802H18.7058H18.7315H18.7571H18.7826H18.8081H18.8335H18.8589H18.8843H18.9096H18.9348H18.96H18.9852H19.0103H19.0353H19.0603H19.0852H19.1101H19.135H19.1597H19.1845H19.2091H19.2338H19.2583H19.2828H19.3073H19.3317H19.356H19.3803H19.4045H19.4286H19.4528H19.4768H19.5008H19.5247H19.5486H19.5724H19.5961H19.6198H19.6434H19.667H19.6905H19.7139H19.7373H19.7606H19.7838H19.807H19.8301H19.8531H19.8761H19.899H19.9218H19.9446H19.9673H19.9899H20.0125H20.035H20.0574H20.0798H20.1021H20.1243H20.1465H20.1685H20.1905H20.2125H20.2343H20.2561H20.2778H20.2995H20.321H20.3425H20.3639H20.3852H20.4065H20.4277H20.4488H20.4698H20.4908H20.5116H20.5324H20.5531H20.5738H20.5943H20.6148H20.6352H20.6555H20.6757H20.6959H20.7159H20.7359H20.7558H20.7756H20.7954H20.815H20.8346H20.854H20.8734H20.8927H20.9119H20.9311H20.9501H20.9691H20.9879H21.0067H21.0254H21.044H21.0625H21.0809H21.0992H21.1175H21.1356H21.1536H21.1716H21.1895H21.2072H21.2249H21.2425H21.26H21.2774H21.2947H21.4127L21.4519 12.7769C21.4794 12.7652 21.5288 12.7387 21.5985 12.6805C21.7685 12.5386 22.0127 12.2332 22.1921 11.6605C22.4554 10.8199 22.8637 9.15472 23.2625 7.52801L23.2625 7.52794C23.526 6.45309 23.7854 5.39504 23.9962 4.60274C23.9925 4.58561 23.9865 4.56245 23.9768 4.53337C23.9463 4.44202 23.8928 4.33565 23.8162 4.23794C23.6741 4.05681 23.4701 3.91911 23.1464 3.91911H23.1383H23.1301H23.1217H23.1132H23.1044H23.0954H23.0863H23.077H23.0675H23.0578H23.0479H23.0379H23.0277H23.0172H23.0066H22.9959H22.9849H22.9738H22.9625H22.951H22.9394H22.9275H22.9155H22.9033H22.891H22.8784H22.8657H22.8529H22.8398H22.8266H22.8132H22.7997H22.7859H22.772H22.758H22.7437H22.7293H22.7148H22.7H22.6851H22.6701H22.6548H22.6394H22.6239H22.6082H22.5923H22.5763H22.5601H22.5437H22.5272H22.5105H22.4937H22.4767H22.4595H22.4422H22.4247H22.4071H22.3893H22.3714H22.3533H22.3351H22.3167H22.2982H22.2795H22.2606H22.2416H22.2225H22.2032H22.1837H22.1641H22.1444H22.1245H22.1045H22.0843H22.064H22.0435H22.0229H22.0022H21.9813H21.9602H21.9391H21.9177H21.8963H21.8747H21.8529H21.831H21.809H21.7869H21.7646H21.7422H21.7196H21.6969H21.6741H21.6511H21.628H21.6047H21.5814H21.5579H21.5343H21.5105H21.4866H21.4626H21.4384H21.4142H21.3897H21.3652H21.3406H21.3158H21.2909H21.2658H21.2407H21.2154H21.19H21.1644H21.1388H21.113H21.0871H21.0611H21.035H21.0087H20.9824H20.9559H20.9293H20.9026H20.8757H20.8488H20.8217H20.7945H20.7672H20.7398H20.7123H20.6846H20.6569H20.629H20.6011H20.573H20.5448H20.5165H20.4881H20.4596H20.431H20.4023H20.3734H20.3445H20.3155H20.2863H20.2571H20.2277H20.1983H20.1687H20.1391H20.1093H20.0794H20.0495H20.0194H19.9893H19.959H19.9287H19.8982H19.8677H19.8371H19.8063H19.7755H19.7446H19.7136H19.6825H19.6513H19.62H19.5886H19.5572H19.5256H19.494H19.4622H19.4304H19.3985H19.3665H19.3344H19.3023H19.27H19.2377H19.2053H19.1728H19.1402H19.1075H19.0748H19.042H19.009H18.9761H18.943H18.9098H18.8766H18.8433H18.8099H18.7765H18.743H18.7094H18.6757H18.6419H18.6081H18.5742H18.5402H18.5062H18.4721H18.4379H18.4036H18.3693H18.3349H18.3005H18.2659H18.2313H18.1967H18.162H18.1272H18.0923H18.0574H18.0224H17.9874H17.9522H17.9171H17.8818H17.8466H17.8112H17.7758H17.7403H17.7048H17.6692H17.6336H17.5979H17.5621H17.5263H17.4904H17.4545H17.4185H17.3825H17.3464H17.3103H17.2741H17.2379H17.2016H17.1653H17.1289H17.0925H17.056H17.0195H16.9829H16.9463H16.9096H16.8729H16.8361H16.7994H16.7625H16.7256H16.6887H16.6517H16.6147H16.5777H16.5406H16.5035H16.4663H16.4291H16.3919H16.3546H16.3173H16.2799H16.2426H16.2051H16.1677H16.1302H16.0927H16.0551H16.0176H15.9799H15.9423H15.9046H15.8669H15.8292H15.7914H15.7536H15.7158H15.678H15.6401H15.6022H15.5643H15.5264H15.4884H15.4504H15.4124H15.3744H15.3363H15.2983H15.2602H15.2221H15.1839H15.1458H15.1076H15.0694H15.0312H14.993H14.9548H14.9166H14.8783H14.84H14.8017H14.7634H14.7251H14.6868H14.6485H14.6101H14.5718H14.5334H14.495H14.4567H14.4183H14.3799H14.3415H14.3031H14.2647H14.2263H14.1878H14.1494H14.111H14.0726H14.0342H13.9957H13.9573H13.9189H13.8804H13.842H13.8036H13.7652H13.7268H13.6883H13.6499H13.6115H13.5731H13.5347H13.4964H13.458H13.4196H13.3812H13.3429H13.3045H13.2662H13.2279H13.1896H13.1513H13.113H13.0747H13.0364H12.9982H12.96H12.9217H12.8835H12.8454H12.8072H12.769H12.7309H12.6928H12.6547H12.6166H12.5786H12.5405H12.5025H12.4645H12.4266H12.3886H12.3507H12.3128H12.2749H12.2371H12.1993H12.1615H12.1237H12.086H12.0483H12.0106H11.973H11.9354H11.8978H11.8602H11.8227H11.7852H11.7478H11.7103H11.6729H11.6356H11.5983H11.561H11.5237H11.4865H11.4494H11.4122H11.3751H11.3381H11.3011H11.2641H11.2272H11.1903H11.1535H11.1166H11.0799H11.0432H11.0065H10.9699H10.9333H10.8968H10.8603H10.8239H10.7875H10.7511H10.7148H10.6786H10.6424H10.6063H10.5702H10.5342H10.4982H10.4622H10.4264H10.3906H10.3548H10.3191H10.2834H10.2478H10.2123H10.1768H10.1414H10.106H10.0707H10.0355H10.0003H9.96521H9.93016H9.89517H9.86024H9.82537H9.79057H9.75584H9.72117H9.68657H9.65203H9.61756H9.58316H9.54883H9.51457H9.48037H9.44625H9.4122H9.37822H9.34431H9.31047H9.27671H9.24302H9.20941H9.17587H9.14241H9.10902H9.07571H9.04247H9.00932H8.97624H8.94324H8.91032H8.87748H8.84472H8.81205H8.77945H8.74694H8.71451H8.68217H8.6499H8.61773H8.58564H8.55363H8.52171H8.48988H8.45814H8.42648H8.39491H8.36344H8.33205H8.30075H8.26955H8.23843H8.20741H8.17648H8.14565H8.11491H8.08426H8.05371H8.02325H7.99289H7.96263H7.93247H7.9024H7.87243H7.84256H7.81279H7.78313H7.75356H7.72409H7.69473H7.66547H7.63631H7.60726H7.57831H7.54946H7.52073H7.49209H7.46357H7.43515H7.40684V1.91911H7.43515H7.46357H7.49209H7.52073H7.54946H7.57831H7.60726H7.63631H7.66547H7.69473H7.72409H7.75356H7.78313H7.81279H7.84256H7.87243H7.9024H7.93247H7.96263H7.99289H8.02325H8.05371H8.08426H8.11491H8.14565H8.17648H8.20741H8.23843H8.26955H8.30075H8.33205H8.36344H8.39491H8.42648H8.45814H8.48988H8.52171H8.55363H8.58564H8.61773H8.6499H8.68217H8.71451H8.74694H8.77945H8.81205H8.84472H8.87748H8.91032H8.94324H8.97624H9.00932H9.04247H9.07571H9.10902H9.14241H9.17587H9.20941H9.24302H9.27671H9.31047H9.34431H9.37822H9.4122H9.44625H9.48037H9.51457H9.54883H9.58316H9.61756H9.65203H9.68657H9.72117H9.75584H9.79057H9.82537H9.86024H9.89517H9.93016H9.96521H10.0003H10.0355H10.0707H10.106H10.1414H10.1768H10.2123H10.2478H10.2834H10.3191H10.3548H10.3906H10.4264H10.4622H10.4982H10.5342H10.5702H10.6063H10.6424H10.6786H10.7148H10.7511H10.7875H10.8239H10.8603H10.8968H10.9333H10.9699H11.0065H11.0432H11.0799H11.1166H11.1535H11.1903H11.2272H11.2641H11.3011H11.3381H11.3751H11.4122H11.4494H11.4865H11.5237H11.561H11.5983H11.6356H11.6729H11.7103H11.7478H11.7852H11.8227H11.8602H11.8978H11.9354H11.973H12.0106H12.0483H12.086H12.1237H12.1615H12.1993H12.2371H12.2749H12.3128H12.3507H12.3886H12.4266H12.4645H12.5025H12.5405H12.5786H12.6166H12.6547H12.6928H12.7309H12.769H12.8072H12.8454H12.8835H12.9217H12.96H12.9982H13.0364H13.0747H13.113H13.1513H13.1896H13.2279H13.2662H13.3045H13.3429H13.3812H13.4196H13.458H13.4964H13.5347H13.5731H13.6115H13.6499H13.6883H13.7268H13.7652H13.8036H13.842H13.8804H13.9189H13.9573H13.9957H14.0342H14.0726H14.111H14.1494H14.1878H14.2263H14.2647H14.3031H14.3415H14.3799H14.4183H14.4567H14.495H14.5334H14.5718H14.6101H14.6485H14.6868H14.7251H14.7634H14.8017H14.84H14.8783H14.9166H14.9548H14.993H15.0312H15.0694H15.1076H15.1458H15.1839H15.2221H15.2602H15.2983H15.3363H15.3744H15.4124H15.4504H15.4884H15.5264H15.5643H15.6022H15.6401H15.678H15.7158H15.7536H15.7914H15.8292H15.8669H15.9046H15.9423H15.9799H16.0176H16.0551H16.0927H16.1302H16.1677H16.2051H16.2426H16.2799H16.3173H16.3546H16.3919H16.4291H16.4663H16.5035H16.5406H16.5777H16.6147H16.6517H16.6887H16.7256H16.7625H16.7994H16.8361H16.8729H16.9096H16.9463H16.9829H17.0195H17.056H17.0925H17.1289H17.1653H17.2016H17.2379H17.2741H17.3103H17.3464H17.3825H17.4185H17.4545H17.4904H17.5263H17.5621H17.5979H17.6336H17.6692H17.7048H17.7403H17.7758H17.8112H17.8466H17.8818H17.9171H17.9522H17.9874H18.0224H18.0574H18.0923H18.1272H18.162H18.1967H18.2313H18.2659H18.3005H18.3349H18.3693H18.4036H18.4379H18.4721H18.5062H18.5402H18.5742H18.6081H18.6419H18.6757H18.7094H18.743H18.7765H18.8099H18.8433H18.8766H18.9098H18.943H18.9761H19.009H19.042H19.0748H19.1075H19.1402H19.1728H19.2053H19.2377H19.27H19.3023H19.3344H19.3665H19.3985H19.4304H19.4622H19.494H19.5256H19.5572H19.5886H19.62H19.6513H19.6825H19.7136H19.7446H19.7755H19.8063H19.8371H19.8677H19.8982H19.9287H19.959H19.9893H20.0194H20.0495H20.0794H20.1093H20.1391H20.1687H20.1983H20.2277H20.2571H20.2863H20.3155H20.3445H20.3734H20.4023H20.431H20.4596H20.4881H20.5165H20.5448H20.573H20.6011H20.629H20.6569H20.6846H20.7123H20.7398H20.7672H20.7945H20.8217H20.8488H20.8757H20.9026H20.9293H20.9559H20.9824H21.0087H21.035H21.0611H21.0871H21.113H21.1388H21.1644H21.19H21.2154H21.2407H21.2658H21.2909H21.3158H21.3406H21.3652H21.3897H21.4142H21.4384H21.4626H21.4866H21.5105H21.5343H21.5579H21.5814H21.6047H21.628H21.6511H21.6741H21.6969H21.7196H21.7422H21.7646H21.7869H21.809H21.831H21.8529H21.8747H21.8963H21.9177H21.9391H21.9602H21.9813H22.0022H22.0229H22.0435H22.064H22.0843H22.1045H22.1245H22.1444H22.1641H22.1837H22.2032H22.2225H22.2416H22.2606H22.2795H22.2982H22.3167H22.3351H22.3533H22.3714H22.3893H22.4071H22.4247H22.4422H22.4595H22.4767H22.4937H22.5105H22.5272H22.5437H22.5601H22.5763H22.5923H22.6082H22.6239H22.6394H22.6548H22.6701H22.6851H22.7H22.7148H22.7293H22.7437H22.758H22.772H22.7859H22.7997H22.8132H22.8266H22.8398H22.8529H22.8657H22.8784H22.891H22.9033H22.9155H22.9275H22.9394H22.951H22.9625H22.9738H22.9849H22.9959H23.0066H23.0172H23.0277H23.0379H23.0479H23.0578H23.0675H23.077H23.0863H23.0954H23.1044H23.1132H23.1217H23.1301H23.1383H23.1464C24.1754 1.91911 24.9286 2.41556 25.3898 3.00352C25.8098 3.53899 26.0605 4.24714 25.9914 4.84243L25.9829 4.91594L25.9636 4.98738C25.776 5.68369 25.5168 6.73826 25.2438 7.84879L25.2437 7.84895L25.2437 7.84919C24.8257 9.54963 24.3755 11.3811 24.1006 12.2584C23.8291 13.125 23.3979 13.7837 22.8801 14.2159C22.4242 14.5965 21.8175 14.8586 21.2038 14.7675H21.1895H21.1716H21.1536H21.1356H21.1175H21.0992H21.0809H21.0625H21.044H21.0254H21.0067H20.9879H20.9691H20.9501H20.9311H20.9119H20.8927H20.8734H20.854H20.8346H20.815H20.7954H20.7756H20.7558H20.7359H20.7159H20.6959H20.6757H20.6555H20.6352H20.6148H20.5943H20.5738H20.5531H20.5324H20.5116H20.4908H20.4698H20.4488H20.4277H20.4065H20.3852H20.3639H20.3425H20.321H20.2995H20.2778H20.2561H20.2343H20.2125H20.1905H20.1685H20.1465H20.1243H20.1021H20.0798H20.0574H20.035H20.0125H19.9899H19.9673H19.9446H19.9218H19.899H19.8761H19.8531H19.8301H19.807H19.7838H19.7606H19.7373H19.7139H19.6905H19.667H19.6434H19.6198H19.5961H19.5724H19.5486H19.5247H19.5008H19.4768H19.4528H19.4286H19.4045H19.3803H19.356H19.3317H19.3073H19.2828H19.2583H19.2513C20.429 15.0819 21.2946 16.1342 21.2946 17.3839C21.2946 18.8817 20.0511 20.096 18.5171 20.096C16.9831 20.096 15.7395 18.8817 15.7395 17.3839C15.7395 16.1342 16.6051 15.0819 17.7828 14.7675H17.7823H17.7553H17.7282H17.7011H17.6739H17.6468H17.6196H17.5923H17.5651H17.5378H17.5105H17.4831H17.4558H17.4284H17.4009H17.3735H17.346H17.3185H17.291H17.2635H17.2359H17.2083H17.1807H17.153H17.1254H17.0977H17.07H17.0422H17.0145H16.9867H16.9589H16.9311H16.9033H16.8755H16.8476H16.8197H16.7918H16.7639H16.736H16.708H16.6801H16.6521H16.6241H16.5961H16.5681H16.54H16.512H16.4839H16.4559H16.4278H16.3997H16.3716H16.3435H16.3154H16.2872H16.2591H16.2309H16.2028H16.1746H16.1464H16.1182H16.09H16.0618H16.0336H16.0054H15.9772H15.949H15.9208H15.8926H15.8643H15.8361H15.8079H15.7796H15.7514H15.7231H15.6949H15.6667H15.6384H15.6102H15.5819H15.5537H15.5255H15.4972H15.469H15.4408H15.4125H15.3843H15.3561H15.3279H15.2997H15.2715H15.2433H15.2151H15.1869H15.1587H15.1306H15.1024H15.0743H15.0461H15.018H14.9898H14.9617H14.9336H14.9055H14.8775H14.8494H14.8213H14.7933H14.7652H14.7372H14.7092H14.6812H14.6533H14.6253H14.5973H14.5694H14.5415H14.5136H14.4857H14.4579H14.43H14.4022H14.3744H14.3466H14.3188H14.2911H14.2634H14.2356H14.208H14.1803H14.1527H14.125H14.0974H14.0699H14.0423H14.0148H13.9873H13.9598H13.9324H13.905H13.8776H13.8502H13.8229H13.7955H13.7683H13.741H13.7138H13.6866H13.6594H13.6323H13.6052H13.5781H13.551H13.524H13.497H13.4701H13.4432H13.4163H13.3894H13.3626H13.3359H13.3091H13.2824H13.2557H13.2291H13.2025H13.1759H13.1494H13.1229H13.0965H13.0701H13.0437H13.0174H12.9911H12.9648H12.9386H12.9125H12.8863H12.8603H12.8342H12.8082H12.7823H12.7564H12.7305H12.7047H12.6789H12.6532H12.6275H12.6019H12.5763H12.5508H12.5253H12.4998H12.4744H12.4491H12.4238H12.3985H12.3733H12.3482H12.3231H12.2981H12.2731H12.2481H12.2232H12.1984H12.1736H12.1489H12.1242H12.0996H12.0751H12.0506H12.0261H12.0017H11.9774H11.9531H11.9289H11.9047H11.8806H11.8566H11.8326H11.8087H11.7848H11.761H11.7373H11.7136H11.69H11.6664H11.6429H11.6195H11.5961H11.5728H11.5496H11.5264H11.5033H11.4803H11.4573H11.4344H11.4116H11.3888H11.3661H11.3434H11.3209H11.2984H11.276H11.2536H11.2313H11.2091H11.1869H11.1649H11.1429H11.1209H11.0991H11.0773H11.0556H11.034H11.0124H10.9909H10.9695H10.9482H10.9269H10.9203C12.0972 15.0825 12.962 16.1343 12.962 17.3834C12.962 18.8813 11.7184 20.0955 10.1844 20.0955C8.65042 20.0955 7.40687 18.8813 7.40687 17.3834C7.40687 16.1343 8.27167 15.0825 9.44853 14.7675H9.4434H9.43027H9.41726H9.40436H9.39158H9.3789H9.36635H9.3539H9.34158H9.32936H9.31727H9.30529H9.29343H9.28168H9.27006H9.25855C6.72737 14.7675 5.71952 13.0015 5.51342 12.2121L5.50668 12.1862L5.50133 12.1601L3.65238 3.13326C3.53423 2.63168 3.36714 2.3973 3.23847 2.27861C3.11093 2.16095 2.93375 2.07607 2.64419 2.03227C2.33785 1.98594 1.96934 1.99436 1.5005 2.02683C1.40267 2.03361 1.29865 2.04163 1.19026 2.05ZM21.4262 12.7856L21.4288 12.7851C21.4271 12.7855 21.4262 12.7856 21.4262 12.7856ZM10.1844 18.0955C10.6591 18.0955 10.962 17.732 10.962 17.3834C10.962 17.0348 10.6591 16.6713 10.1844 16.6713C9.70976 16.6713 9.40687 17.0348 9.40687 17.3834C9.40687 17.732 9.70976 18.0955 10.1844 18.0955ZM19.2946 17.3839C19.2946 17.7324 18.9917 18.096 18.5171 18.096C18.0424 18.096 17.7395 17.7324 17.7395 17.3839C17.7395 17.0353 18.0424 16.6718 18.5171 16.6718C18.9917 16.6718 19.2946 17.0353 19.2946 17.3839Z" fill="#01B16B"/>
</svg>
