<svg width="28" height="28" viewBox="0 0 28 28" fill="none" xmlns="http://www.w3.org/2000/svg">
<path d="M7.42871 19.4847L11.5087 12.7464C9.69303 11.0282 6.71028 6.38018 10.4008 2.73474C15.0171 -1.82503 20.9258 3.42862 20.0949 8.97964" stroke="#01B16B" stroke-width="2"/>
<path d="M15.7445 7.19542C15.7445 8.1462 15.039 8.82443 14.2788 8.82443C13.5186 8.82443 12.813 8.1462 12.813 7.19542C12.813 6.24464 13.5186 5.56641 14.2788 5.56641C15.039 5.56641 15.7445 6.24464 15.7445 7.19542Z" stroke="#01B16B" stroke-width="1.5"/>
<path d="M14.7412 8.51562L18.6176 15.4226C20.8334 14.1339 25.7266 14.2727 26.8345 19.5858C28.2193 26.2272 20.5564 29.0027 17.4174 25.4342" stroke="#01B16B" stroke-width="2"/>
<path d="M20.0226 20.8753H12.432C12.0935 23.1551 10.3085 27.5365 5.87697 26.8228C0.337523 25.9307 -1.23199 17.7032 5.13838 14.9277" stroke="#01B16B" stroke-width="2"/>
<path d="M22.7611 20.8751C22.7611 21.8259 22.0556 22.5041 21.2954 22.5041C20.5352 22.5041 19.8296 21.8259 19.8296 20.8751C19.8296 19.9243 20.5352 19.2461 21.2954 19.2461C22.0556 19.2461 22.7611 19.9243 22.7611 20.8751Z" stroke="#01B16B" stroke-width="1.5"/>
<path d="M8.17374 20.8751C8.17374 21.8259 7.46818 22.5041 6.70797 22.5041C5.94776 22.5041 5.24219 21.8259 5.24219 20.8751C5.24219 19.9243 5.94776 19.2461 6.70797 19.2461C7.46818 19.2461 8.17374 19.9243 8.17374 20.8751Z" stroke="#01B16B" stroke-width="1.5"/>
</svg>
