<svg width="29" height="28" viewBox="0 0 29 28" fill="none" xmlns="http://www.w3.org/2000/svg">
<path fill-rule="evenodd" clip-rule="evenodd" d="M3.11911 7.39128C2.987 7.71207 2.98658 8.19224 3.03734 8.73754L3.04164 8.78377V8.83021V8.8475V8.86488V8.88234V8.89989V8.91754V8.93526V8.95308V8.97098V8.98897V9.00704V9.0252V9.04344V9.06177V9.08018V9.09868V9.11725V9.13592V9.15466V9.17348V9.19239V9.21138V9.23045V9.2496V9.26883V9.28814V9.30752V9.32699V9.34653V9.36616V9.38586V9.40563V9.42549V9.44542V9.46542V9.4855V9.50566V9.52589V9.54619V9.56657V9.58702V9.60755V9.62815V9.64881V9.66956V9.69037V9.71125V9.71705H25.0113V9.71247V9.69385V9.6753V9.65683V9.63842V9.62009V9.60183V9.58364V9.56552V9.54747V9.5295V9.5116V9.49377V9.47602V9.45834V9.44074V9.42321V9.40575V9.38837V9.37107V9.35384V9.33669V9.31961V9.30262V9.2857V9.26885V9.25209V9.2354V9.2188V9.20227V9.18582V9.16945V9.15316V9.13695V9.12083V9.10478V9.08882V9.07293V9.05713V9.04142V9.02578V9.01023V8.99476V8.97937V8.96407V8.94886V8.93373V8.91868V8.90372V8.88885V8.87406V8.85936V8.84474V8.83021C25.0113 7.75691 24.7387 7.36023 24.595 7.21842C24.4504 7.07579 24.2649 7.01982 24.0522 7H3.95921C3.58905 7 3.40551 7.07829 3.31911 7.13344C3.23812 7.18513 3.17311 7.26016 3.11911 7.39128ZM3.04164 11.7269V11.717H25.0113V11.7264V11.7501V11.7739V11.7976V11.8215V11.8453V11.8692V11.8932V11.9172V11.9412V11.9652V11.9893V12.0134V12.0375V12.0617V12.0859V12.1102V12.1345V12.1588V12.1831V12.2075V12.2319V12.2563V12.2808V12.3053V12.3298V12.3544V12.379V12.4036V12.4282V12.4529V12.4776V12.5023V12.527V12.5518V12.5766V12.6015V12.6263V12.6512V12.6761V12.701V12.726V12.751V12.776V12.801V12.826V12.8511V12.8762V12.9013V12.9264V12.9516V12.9768V13.002V13.0272V13.0524V13.0777V13.103V13.1283V13.1536V13.1789V13.2043V13.2296V13.255V13.2804V13.3058V13.3313V13.3567V13.3822V13.4077V13.4332V13.4587V13.4842V13.5097V13.5353V13.5608V13.5864V13.612V13.6376V13.6632V13.6889V13.7145V13.7401V13.7658V13.7915V13.8171V13.8428V13.8685V13.8942V13.9199V13.9457V13.9714V13.9971V14.0229V14.0486V14.0744V14.1001V14.1259V14.1517V14.1774V14.2032V14.229V14.2548V14.2806V14.3064V14.3322V14.358V14.3838V14.4096V14.4354V14.4612V14.487V14.5128V14.5386V14.5645V14.5903V14.6161V14.6419V14.6677V14.6935V14.7193V14.7451V14.7709V14.7967V14.8225V14.8483V14.8741V14.8998V14.9256V14.9514V14.9771V15.0029V15.0286V15.0544V15.0801V15.1059V15.1316V15.1573V15.183V15.2087V15.2344V15.2601V15.2857V15.3114V15.337V15.3627V15.3883V15.4139V15.4395V15.4651V15.4907V15.5163V15.5418V15.5674V15.5929V15.6184V15.6439V15.6694V15.6949V15.7203V15.7458V15.7712V15.7966V15.822V15.8474V15.8727V15.8981V15.9234V15.9487V15.974V15.9992V16.0245V16.0497V16.0749V16.1001V16.1252V16.1504V16.1755V16.2006V16.2257V16.2507V16.2758V16.3008V16.3258V16.3507V16.3757V16.4006V16.4255V16.4503V16.4752V16.5V16.5248V16.5495V16.5742V16.599V16.6236V16.6483V16.6729V16.6975V16.7221V16.7466V16.7711V16.7956V16.82V16.8444V16.8688V16.8932V16.9175V16.9418V16.966V16.9902V17.0144V17.0386V17.0627V17.0868V17.1109V17.1349V17.1589V17.1828V17.2067V17.2306V17.2544V17.2782V17.302V17.3257V17.3494V17.3731V17.3967V17.4203V17.4438V17.4673V17.4908V17.5142V17.5376V17.5609V17.5842V17.6075V17.6307V17.6539V17.677V17.7001V17.7231V17.7461V17.7691V17.792V17.8149V17.8377V17.8605V17.8832V17.9059V17.9285V17.9511V17.9737V17.9962V18.0186V18.041V18.0634V18.0857V18.1079V18.1301V18.1523V18.1744V18.1965V18.2185V18.2404V18.2623V18.2842V18.306V18.3278V18.3495V18.3711V18.3927V18.4142V18.4357V18.4571V18.4785V18.4998V18.5211V18.5423V18.5635V18.5846V18.6056V18.6266V18.6475V18.6684V18.6892V18.71V18.7306V18.7513V18.7719V18.7924V18.8128V18.8332V18.8536V18.8738V18.894V18.9142V18.9343V18.9543V18.9743V18.9942V19.014V19.0338V19.0535V19.0731V19.0927V19.1122V19.1317V19.1511V19.1704V19.1896V19.2088V19.2279V19.247V19.266V19.2849V19.3037V19.3225V19.3412V19.3598V19.3784V19.3969V19.4153V19.4337V19.452V19.4702V19.4883V19.5064V19.5244V19.5423V19.5601V19.5779V19.5956V19.6132V19.6308V19.6483V19.6657V19.683V19.7003V19.7174V19.7345V19.7516V19.7685V19.7854V19.8022V19.8189V19.8355V19.852V19.8685V19.8849V19.9012V19.9175V19.9336V19.9497V19.9657V19.9816V19.9974V20.0131V20.0288V20.0301C24.9502 20.2507 24.834 20.5195 24.6683 20.7258C24.4943 20.9423 24.3166 21.0379 24.0937 21.0379H24.0865H24.079H24.0713H24.0633H24.0551H24.0466H24.0378H24.0287H24.0194H24.0099H24.0001H23.99H23.9797H23.9691H23.9582H23.9471H23.9358H23.9242H23.9123H23.9002H23.8879H23.8753H23.8624H23.8493H23.836H23.8224H23.8086H23.7945H23.7802H23.7656H23.7508H23.7357H23.7204H23.7049H23.6891H23.6731H23.6569H23.6404H23.6237H23.6067H23.5896H23.5721H23.5545H23.5366H23.5185H23.5002H23.4816H23.4628H23.4438H23.4245H23.405H23.3853H23.3654H23.3453H23.3249H23.3043H23.2835H23.2625H23.2412H23.2198H23.1981H23.1762H23.1541H23.1317H23.1092H23.0864H23.0635H23.0403H23.0169H22.9933H22.9695H22.9455H22.9212H22.8968H22.8722H22.8473H22.8223H22.797H22.7716H22.7459H22.7201H22.694H22.6678H22.6413H22.6147H22.5878H22.5608H22.5335H22.5061H22.4785H22.4507H22.4227H22.3945H22.3661H22.3375H22.3087H22.2798H22.2506H22.2213H22.1918H22.1621H22.1322H22.1022H22.0719H22.0415H22.0109H21.9801H21.9492H21.918H21.8867H21.8552H21.8235H21.7917H21.7597H21.7275H21.6951H21.6626H21.6299H21.597H21.564H21.5308H21.4974H21.4639H21.4302H21.3963H21.3623H21.3281H21.2937H21.2592H21.2245H21.1897H21.1547H21.1195H21.0842H21.0487H21.0131H20.9773H20.9414H20.9053H20.8691H20.8327H20.7961H20.7595H20.7226H20.6856H20.6485H20.6112H20.5738H20.5362H20.4985H20.4606H20.4226H20.3845H20.3462H20.3078H20.2692H20.2305H20.1917H20.1527H20.1136H20.0744H20.035H19.9955H19.9559H19.9161H19.8762H19.8362H19.796H19.7557H19.7153H19.6747H19.6341H19.5933H19.5523H19.5113H19.4701H19.4289H19.3874H19.3459H19.3043H19.2625H19.2206H19.1786H19.1365H19.0943H19.0519H19.0095H18.9669H18.9242H18.8814H18.8385H18.7955H18.7524H18.7092H18.6658H18.6224H18.5788H18.5352H18.4914H18.4476H18.4036H18.3596H18.3154H18.2711H18.2268H18.1823H18.1378H18.0931H18.0484H18.0035H17.9586H17.9136H17.8685H17.8232H17.7779H17.7326H17.6871H17.6415H17.5959H17.5501H17.5043H17.4584H17.4124H17.3663H17.3202H17.2739H17.2276H17.1812H17.1347H17.0882H17.0415H16.9948H16.9481H16.9012H16.8543H16.8073H16.7602H16.713H16.6658H16.6185H16.5712H16.5237H16.4762H16.4287H16.3811H16.3334H16.2856H16.2378H16.1899H16.142H16.094H16.0459H15.9978H15.9496H15.9014H15.8531H15.8047H15.7563H15.7079H15.6593H15.6108H15.5622H15.5135H15.4648H15.416H15.3672H15.3183H15.2694H15.2205H15.1715H15.1224H15.0733H15.0242H14.975H14.9258H14.8766H14.8273H14.778H14.7286H14.6792H14.6298H14.5803H14.5308H14.4812H14.4316H14.382H14.3324H14.2827H14.233H14.1833H14.1336H14.0838H14.034H13.9841H13.9343H13.8844H13.8345H13.7846H13.7346H13.6846H13.6347H13.5847H13.5346H13.4846H13.4345H13.3845H13.3344H13.2843H13.2342H13.184H13.1339H13.0838H13.0336H12.9834H12.9333H12.8831H12.8329H12.7827H12.7325H12.6823H12.6321H12.5819H12.5317H12.4815H12.4313H12.3811H12.3309H12.2807H12.2305H12.1803H12.1301H12.0799H12.0297H11.9795H11.9294H11.8792H11.8291H11.779H11.7289H11.6787H11.6287H11.5786H11.5285H11.4785H11.4284H11.3784H11.3284H11.2785H11.2285H11.1786H11.1287H11.0788H11.0289H10.9791H10.9292H10.8795H10.8297H10.78H10.7302H10.6806H10.6309H10.5813H10.5317H10.4822H10.4326H10.3831H10.3337H10.2843H10.2349H10.1856H10.1362H10.087H10.0378H9.98857H9.93942H9.89032H9.84126H9.79225H9.74328H9.69435H9.64548H9.59664H9.54786H9.49913H9.45044H9.40181H9.35323H9.3047H9.25622H9.20779H9.15942H9.11111H9.06285H9.01465H8.96651H8.91843H8.8704H8.82244H8.77454H8.7267H8.67892H8.63121H8.58356H8.53597H8.48845H8.441H8.39362H8.34631H8.29906H8.25189H8.20478H8.15775H8.11079H8.06391H8.01709H7.97036H7.9237H7.87712H7.83061H7.78418H7.73784H7.69157H7.64538H7.59928H7.55326H7.50732H7.46147H7.4157H7.37001H7.32442H7.27891H7.23349H7.18816H7.14292H7.09777H7.05271H7.00774H6.96287H6.91809H6.87341H6.82882H6.78433H6.73993H6.69564H6.65144H6.60735H6.56335H6.51946H6.47567H6.43198H6.38839H6.34491H6.30154H6.25827H6.21511H6.17206H6.12912H6.08629H6.04356H6.00095H5.95845H5.91607H5.8738H5.83164H5.7896H5.74767H5.70587H5.66418H5.62261H5.58116H5.53983H5.49862H5.45753H5.41657H5.37573H5.33501H5.29442H5.25396H5.21362H5.17341H5.13333H5.09338H5.05356H5.01387H4.97432H4.93489H4.8956H4.85645H4.81743H4.77854H4.7398H4.70119H4.66272H4.62439H4.58619H4.54814H4.51024H4.47247H4.43485H4.39737H4.36004H4.32286H4.28582H4.24893H4.21218H4.17559H4.13915H4.10285H4.06671H4.03073H3.99489H3.99433C3.70475 21.0157 3.45606 20.9479 3.29797 20.8353C3.22769 20.7853 3.17325 20.7253 3.1319 20.6416C3.08934 20.5555 3.04164 20.4051 3.04164 20.1511V20.142V20.1329V20.1236V20.1142V20.1047V20.0951V20.0853V20.0755V20.0655V20.0554V20.0452V20.0348V20.0244V20.0138V20.0031V19.9923V19.9814V19.9704V19.9592V19.948V19.9366V19.9251V19.9135V19.9018V19.89V19.878V19.866V19.8538V19.8415V19.8292V19.8167V19.8041V19.7914V19.7786V19.7657V19.7526V19.7395V19.7263V19.7129V19.6995V19.6859V19.6722V19.6585V19.6446V19.6306V19.6165V19.6024V19.5881V19.5737V19.5592V19.5446V19.5299V19.5152V19.5003V19.4853V19.4702V19.455V19.4397V19.4243V19.4089V19.3933V19.3776V19.3618V19.346V19.33V19.314V19.2978V19.2816V19.2652V19.2488V19.2323V19.2157V19.199V19.1822V19.1653V19.1483V19.1312V19.1141V19.0968V19.0795V19.0621V19.0445V19.0269V19.0092V18.9915V18.9736V18.9556V18.9376V18.9195V18.9013V18.883V18.8646V18.8461V18.8276V18.809V18.7903V18.7715V18.7526V18.7336V18.7146V18.6955V18.6763V18.657V18.6377V18.6182V18.5987V18.5791V18.5595V18.5397V18.5199V18.5V18.48V18.46V18.4398V18.4197V18.3994V18.379V18.3586V18.3381V18.3175V18.2969V18.2762V18.2554V18.2346V18.2136V18.1926V18.1716V18.1504V18.1292V18.108V18.0866V18.0652V18.0438V18.0222V18.0006V17.9789V17.9572V17.9354V17.9135V17.8916V17.8696V17.8475V17.8254V17.8032V17.781V17.7587V17.7363V17.7139V17.6914V17.6688V17.6462V17.6235V17.6008V17.578V17.5551V17.5322V17.5093V17.4862V17.4632V17.44V17.4168V17.3936V17.3703V17.3469V17.3235V17.3001V17.2766V17.253V17.2294V17.2057V17.182V17.1582V17.1344V17.1105V17.0866V17.0626V17.0385V17.0145V16.9903V16.9662V16.942V16.9177V16.8934V16.869V16.8446V16.8202V16.7957V16.7711V16.7465V16.7219V16.6972V16.6725V16.6478V16.623V16.5981V16.5733V16.5483V16.5234V16.4984V16.4733V16.4482V16.4231V16.398V16.3728V16.3475V16.3223V16.2969V16.2716V16.2462V16.2208V16.1954V16.1699V16.1443V16.1188V16.0932V16.0676V16.0419V16.0162V15.9905V15.9648V15.939V15.9132V15.8873V15.8615V15.8356V15.8096V15.7837V15.7577V15.7317V15.7056V15.6796V15.6535V15.6274V15.6012V15.575V15.5488V15.5226V15.4964V15.4701V15.4438V15.4175V15.3912V15.3648V15.3384V15.312V15.2856V15.2592V15.2327V15.2062V15.1797V15.1532V15.1267V15.1001V15.0735V15.0469V15.0203V14.9937V14.9671V14.9404V14.9138V14.8871V14.8604V14.8337V14.8069V14.7802V14.7534V14.7267V14.6999V14.6731V14.6463V14.6195V14.5927V14.5659V14.5391V14.5122V14.4854V14.4585V14.4316V14.4048V14.3779V14.351V14.3241V14.2972V14.2703V14.2434V14.2165V14.1896V14.1626V14.1357V14.1088V14.0819V14.0549V14.028V14.0011V13.9742V13.9472V13.9203V13.8934V13.8664V13.8395V13.8126V13.7857V13.7587V13.7318V13.7049V13.678V13.6511V13.6242V13.5973V13.5704V13.5435V13.5166V13.4898V13.4629V13.4361V13.4092V13.3824V13.3555V13.3287V13.3019V13.2751V13.2483V13.2216V13.1948V13.168V13.1413V13.1146V13.0878V13.0611V13.0345V13.0078V12.9811V12.9545V12.9278V12.9012V12.8746V12.8481V12.8215V12.7949V12.7684V12.7419V12.7154V12.689V12.6625V12.6361V12.6097V12.5833V12.5569V12.5306V12.5042V12.4779V12.4517V12.4254V12.3992V12.373V12.3468V12.3206V12.2945V12.2684V12.2423V12.2163V12.1902V12.1642V12.1383V12.1123V12.0864V12.0605V12.0347V12.0089V11.9831V11.9573V11.9316V11.9059V11.8802V11.8546V11.829V11.8034V11.7779V11.7524V11.7269ZM2.24313 5.44753C2.72404 5.14061 3.30496 5 3.95921 5H24.0937H24.1312L24.1686 5.00281C24.5948 5.03483 25.3561 5.15985 25.9996 5.79466C26.6514 6.43772 27.0113 7.43162 27.0113 8.83021V8.84474V8.85936V8.87406V8.88885V8.90372V8.91868V8.93373V8.94886V8.96407V8.97937V8.99476V9.01023V9.02578V9.04142V9.05713V9.07293V9.08882V9.10478V9.12083V9.13695V9.15316V9.16945V9.18582V9.20227V9.2188V9.2354V9.25209V9.26885V9.2857V9.30262V9.31961V9.33669V9.35384V9.37107V9.38837V9.40575V9.42321V9.44074V9.45834V9.47602V9.49377V9.5116V9.5295V9.54747V9.56552V9.58364V9.60183V9.62009V9.63842V9.65683V9.6753V9.69385V9.71247V9.73115V9.7499V9.76873V9.78762V9.80658V9.82561V9.8447V9.86387V9.8831V9.90239V9.92176V9.94118V9.96068V9.98024V9.99986V10.0196V10.0393V10.0591V10.079V10.0989V10.119V10.139V10.1592V10.1793V10.1996V10.2199V10.2403V10.2607V10.2812V10.3018V10.3224V10.3431V10.3638V10.3846V10.4055V10.4264V10.4473V10.4684V10.4894V10.5106V10.5318V10.553V10.5743V10.5957V10.6171V10.6386V10.6601V10.6817V10.7033V10.725V10.7467V10.7685V10.7903V10.8122V10.8342V10.8562V10.8782V10.9003V10.9224V10.9446V10.9669V10.9892V11.0115V11.0339V11.0563V11.0788V11.1014V11.1239V11.1466V11.1692V11.192V11.2147V11.2375V11.2604V11.2833V11.3062V11.3292V11.3522V11.3753V11.3984V11.4216V11.4448V11.468V11.4913V11.5146V11.538V11.5614V11.5849V11.6084V11.6319V11.6554V11.6791V11.7027V11.7264V11.7501V11.7739V11.7976V11.8215V11.8453V11.8692V11.8932V11.9172V11.9412V11.9652V11.9893V12.0134V12.0375V12.0617V12.0859V12.1102V12.1345V12.1588V12.1831V12.2075V12.2319V12.2563V12.2808V12.3053V12.3298V12.3544V12.379V12.4036V12.4282V12.4529V12.4776V12.5023V12.527V12.5518V12.5766V12.6015V12.6263V12.6512V12.6761V12.701V12.726V12.751V12.776V12.801V12.826V12.8511V12.8762V12.9013V12.9264V12.9516V12.9768V13.002V13.0272V13.0524V13.0777V13.103V13.1283V13.1536V13.1789V13.2043V13.2296V13.255V13.2804V13.3058V13.3313V13.3567V13.3822V13.4077V13.4332V13.4587V13.4842V13.5097V13.5353V13.5608V13.5864V13.612V13.6376V13.6632V13.6889V13.7145V13.7401V13.7658V13.7915V13.8171V13.8428V13.8685V13.8942V13.9199V13.9457V13.9714V13.9971V14.0229V14.0486V14.0744V14.1001V14.1259V14.1517V14.1774V14.2032V14.229V14.2548V14.2806V14.3064V14.3322V14.358V14.3838V14.4096V14.4354V14.4612V14.487V14.5128V14.5386V14.5645V14.5903V14.6161V14.6419V14.6677V14.6935V14.7193V14.7451V14.7709V14.7967V14.8225V14.8483V14.8741V14.8998V14.9256V14.9514V14.9771V15.0029V15.0286V15.0544V15.0801V15.1059V15.1316V15.1573V15.183V15.2087V15.2344V15.2601V15.2857V15.3114V15.337V15.3627V15.3883V15.4139V15.4395V15.4651V15.4907V15.5163V15.5418V15.5674V15.5929V15.6184V15.6439V15.6694V15.6949V15.7203V15.7458V15.7712V15.7966V15.822V15.8474V15.8727V15.8981V15.9234V15.9487V15.974V15.9992V16.0245V16.0497V16.0749V16.1001V16.1252V16.1504V16.1755V16.2006V16.2257V16.2507V16.2758V16.3008V16.3258V16.3507V16.3757V16.4006V16.4255V16.4503V16.4752V16.5V16.5248V16.5495V16.5742V16.599V16.6236V16.6483V16.6729V16.6975V16.7221V16.7466V16.7711V16.7956V16.82V16.8444V16.8688V16.8932V16.9175V16.9418V16.966V16.9902V17.0144V17.0386V17.0627V17.0868V17.1109V17.1349V17.1589V17.1828V17.2067V17.2306V17.2544V17.2782V17.302V17.3257V17.3494V17.3731V17.3967V17.4203V17.4438V17.4673V17.4908V17.5142V17.5376V17.5609V17.5842V17.6075V17.6307V17.6539V17.677V17.7001V17.7231V17.7461V17.7691V17.792V17.8149V17.8377V17.8605V17.8832V17.9059V17.9285V17.9511V17.9737V17.9962V18.0186V18.041V18.0634V18.0857V18.1079V18.1301V18.1523V18.1744V18.1965V18.2185V18.2404V18.2623V18.2842V18.306V18.3278V18.3495V18.3711V18.3927V18.4142V18.4357V18.4571V18.4785V18.4998V18.5211V18.5423V18.5635V18.5846V18.6056V18.6266V18.6475V18.6684V18.6892V18.71V18.7306V18.7513V18.7719V18.7924V18.8128V18.8332V18.8536V18.8738V18.894V18.9142V18.9343V18.9543V18.9743V18.9942V19.014V19.0338V19.0535V19.0731V19.0927V19.1122V19.1317V19.1511V19.1704V19.1896V19.2088V19.2279V19.247V19.266V19.2849V19.3037V19.3225V19.3412V19.3598V19.3784V19.3969V19.4153V19.4337V19.452V19.4702V19.4883V19.5064V19.5244V19.5423V19.5601V19.5779V19.5956V19.6132V19.6308V19.6483V19.6657V19.683V19.7003V19.7174V19.7345V19.7516V19.7685V19.7854V19.8022V19.8189V19.8355V19.852V19.8685V19.8849V19.9012V19.9175V19.9336V19.9497V19.9657V19.9816V19.9974V20.0131V20.0288V20.0444V20.0599V20.0753V20.0906V20.1059V20.121V20.1361V20.1511V20.2595L26.988 20.3654C26.8887 20.8181 26.6575 21.4429 26.2276 21.9782C25.7817 22.5333 25.076 23.0379 24.0937 23.0379H24.0865H24.079H24.0713H24.0633H24.0551H24.0466H24.0378H24.0287H24.0194H24.0099H24.0001H23.99H23.9797H23.9691H23.9582H23.9471H23.9358H23.9242H23.9123H23.9002H23.8879H23.8753H23.8624H23.8493H23.836H23.8224H23.8086H23.7945H23.7802H23.7656H23.7508H23.7357H23.7204H23.7049H23.6891H23.6731H23.6569H23.6404H23.6237H23.6067H23.5896H23.5721H23.5545H23.5366H23.5185H23.5002H23.4816H23.4628H23.4438H23.4245H23.405H23.3853H23.3654H23.3453H23.3249H23.3043H23.2835H23.2625H23.2412H23.2198H23.1981H23.1762H23.1541H23.1317H23.1092H23.0864H23.0635H23.0403H23.0169H22.9933H22.9695H22.9455H22.9212H22.8968H22.8722H22.8473H22.8223H22.797H22.7716H22.7459H22.7201H22.694H22.6678H22.6413H22.6147H22.5878H22.5608H22.5335H22.5061H22.4785H22.4507H22.4227H22.3945H22.3661H22.3375H22.3087H22.2798H22.2506H22.2213H22.1918H22.1621H22.1322H22.1022H22.0719H22.0415H22.0109H21.9801H21.9492H21.918H21.8867H21.8552H21.8235H21.7917H21.7597H21.7275H21.6951H21.6626H21.6299H21.597H21.564H21.5308H21.4974H21.4639H21.4302H21.3963H21.3623H21.3281H21.2937H21.2592H21.2245H21.1897H21.1547H21.1195H21.0842H21.0487H21.0131H20.9773H20.9414H20.9053H20.8691H20.8327H20.7961H20.7595H20.7226H20.6856H20.6485H20.6112H20.5738H20.5362H20.4985H20.4606H20.4226H20.3845H20.3462H20.3078H20.2692H20.2305H20.1917H20.1527H20.1136H20.0744H20.035H19.9955H19.9559H19.9161H19.8762H19.8362H19.796H19.7557H19.7153H19.6747H19.6341H19.5933H19.5523H19.5113H19.4701H19.4289H19.3874H19.3459H19.3043H19.2625H19.2206H19.1786H19.1365H19.0943H19.0519H19.0095H18.9669H18.9242H18.8814H18.8385H18.7955H18.7524H18.7092H18.6658H18.6224H18.5788H18.5352H18.4914H18.4476H18.4036H18.3596H18.3154H18.2711H18.2268H18.1823H18.1378H18.0931H18.0484H18.0035H17.9586H17.9136H17.8685H17.8232H17.7779H17.7326H17.6871H17.6415H17.5959H17.5501H17.5043H17.4584H17.4124H17.3663H17.3202H17.2739H17.2276H17.1812H17.1347H17.0882H17.0415H16.9948H16.9481H16.9012H16.8543H16.8073H16.7602H16.713H16.6658H16.6185H16.5712H16.5237H16.4762H16.4287H16.3811H16.3334H16.2856H16.2378H16.1899H16.142H16.094H16.0459H15.9978H15.9496H15.9014H15.8531H15.8047H15.7563H15.7079H15.6593H15.6108H15.5622H15.5135H15.4648H15.416H15.3672H15.3183H15.2694H15.2205H15.1715H15.1224H15.0733H15.0242H14.975H14.9258H14.8766H14.8273H14.778H14.7286H14.6792H14.6298H14.5803H14.5308H14.4812H14.4316H14.382H14.3324H14.2827H14.233H14.1833H14.1336H14.0838H14.034H13.9841H13.9343H13.8844H13.8345H13.7846H13.7346H13.6846H13.6347H13.5847H13.5346H13.4846H13.4345H13.3845H13.3344H13.2843H13.2342H13.184H13.1339H13.0838H13.0336H12.9834H12.9333H12.8831H12.8329H12.7827H12.7325H12.6823H12.6321H12.5819H12.5317H12.4815H12.4313H12.3811H12.3309H12.2807H12.2305H12.1803H12.1301H12.0799H12.0297H11.9795H11.9294H11.8792H11.8291H11.779H11.7289H11.6787H11.6287H11.5786H11.5285H11.4785H11.4284H11.3784H11.3284H11.2785H11.2285H11.1786H11.1287H11.0788H11.0289H10.9791H10.9292H10.8795H10.8297H10.78H10.7302H10.6806H10.6309H10.5813H10.5317H10.4822H10.4326H10.3831H10.3337H10.2843H10.2349H10.1856H10.1362H10.087H10.0378H9.98857H9.93942H9.89032H9.84126H9.79225H9.74328H9.69435H9.64548H9.59664H9.54786H9.49913H9.45044H9.40181H9.35323H9.3047H9.25622H9.20779H9.15942H9.11111H9.06285H9.01465H8.96651H8.91843H8.8704H8.82244H8.77454H8.7267H8.67892H8.63121H8.58356H8.53597H8.48845H8.441H8.39362H8.34631H8.29906H8.25189H8.20478H8.15775H8.11079H8.06391H8.01709H7.97036H7.9237H7.87712H7.83061H7.78418H7.73784H7.69157H7.64538H7.59928H7.55326H7.50732H7.46147H7.4157H7.37001H7.32442H7.27891H7.23349H7.18816H7.14292H7.09777H7.05271H7.00774H6.96287H6.91809H6.87341H6.82882H6.78433H6.73993H6.69564H6.65144H6.60735H6.56335H6.51946H6.47567H6.43198H6.38839H6.34491H6.30154H6.25827H6.21511H6.17206H6.12912H6.08629H6.04356H6.00095H5.95845H5.91607H5.8738H5.83164H5.7896H5.74767H5.70587H5.66418H5.62261H5.58116H5.53983H5.49862H5.45753H5.41657H5.37573H5.33501H5.29442H5.25396H5.21362H5.17341H5.13333H5.09338H5.05356H5.01387H4.97432H4.93489H4.8956H4.85645H4.81743H4.77854H4.7398H4.70119H4.66272H4.62439H4.58619H4.54814H4.51024H4.47247H4.43485H4.39737H4.36004H4.32286H4.28582H4.24893H4.21218H4.17559H4.13915H4.10285H4.06671H4.03073H3.99489H3.95921H3.92669L3.89424 23.0358C3.44331 23.0064 2.74493 22.8967 2.13795 22.4645C1.46855 21.9879 1.04164 21.2135 1.04164 20.1511V20.142V20.1329V20.1236V20.1142V20.1047V20.0951V20.0853V20.0755V20.0655V20.0554V20.0452V20.0348V20.0244V20.0138V20.0031V19.9923V19.9814V19.9704V19.9592V19.948V19.9366V19.9251V19.9135V19.9018V19.89V19.878V19.866V19.8538V19.8415V19.8292V19.8167V19.8041V19.7914V19.7786V19.7657V19.7526V19.7395V19.7263V19.7129V19.6995V19.6859V19.6722V19.6585V19.6446V19.6306V19.6165V19.6024V19.5881V19.5737V19.5592V19.5446V19.5299V19.5152V19.5003V19.4853V19.4702V19.455V19.4397V19.4243V19.4089V19.3933V19.3776V19.3618V19.346V19.33V19.314V19.2978V19.2816V19.2652V19.2488V19.2323V19.2157V19.199V19.1822V19.1653V19.1483V19.1312V19.1141V19.0968V19.0795V19.0621V19.0445V19.0269V19.0092V18.9915V18.9736V18.9556V18.9376V18.9195V18.9013V18.883V18.8646V18.8461V18.8276V18.809V18.7903V18.7715V18.7526V18.7336V18.7146V18.6955V18.6763V18.657V18.6377V18.6182V18.5987V18.5791V18.5595V18.5397V18.5199V18.5V18.48V18.46V18.4398V18.4197V18.3994V18.379V18.3586V18.3381V18.3175V18.2969V18.2762V18.2554V18.2346V18.2136V18.1926V18.1716V18.1504V18.1292V18.108V18.0866V18.0652V18.0438V18.0222V18.0006V17.9789V17.9572V17.9354V17.9135V17.8916V17.8696V17.8475V17.8254V17.8032V17.781V17.7587V17.7363V17.7139V17.6914V17.6688V17.6462V17.6235V17.6008V17.578V17.5551V17.5322V17.5093V17.4862V17.4632V17.44V17.4168V17.3936V17.3703V17.3469V17.3235V17.3001V17.2766V17.253V17.2294V17.2057V17.182V17.1582V17.1344V17.1105V17.0866V17.0626V17.0385V17.0145V16.9903V16.9662V16.942V16.9177V16.8934V16.869V16.8446V16.8202V16.7957V16.7711V16.7465V16.7219V16.6972V16.6725V16.6478V16.623V16.5981V16.5733V16.5483V16.5234V16.4984V16.4733V16.4482V16.4231V16.398V16.3728V16.3475V16.3223V16.2969V16.2716V16.2462V16.2208V16.1954V16.1699V16.1443V16.1188V16.0932V16.0676V16.0419V16.0162V15.9905V15.9648V15.939V15.9132V15.8873V15.8615V15.8356V15.8096V15.7837V15.7577V15.7317V15.7056V15.6796V15.6535V15.6274V15.6012V15.575V15.5488V15.5226V15.4964V15.4701V15.4438V15.4175V15.3912V15.3648V15.3384V15.312V15.2856V15.2592V15.2327V15.2062V15.1797V15.1532V15.1267V15.1001V15.0735V15.0469V15.0203V14.9937V14.9671V14.9404V14.9138V14.8871V14.8604V14.8337V14.8069V14.7802V14.7534V14.7267V14.6999V14.6731V14.6463V14.6195V14.5927V14.5659V14.5391V14.5122V14.4854V14.4585V14.4316V14.4048V14.3779V14.351V14.3241V14.2972V14.2703V14.2434V14.2165V14.1896V14.1626V14.1357V14.1088V14.0819V14.0549V14.028V14.0011V13.9742V13.9472V13.9203V13.8934V13.8664V13.8395V13.8126V13.7857V13.7587V13.7318V13.7049V13.678V13.6511V13.6242V13.5973V13.5704V13.5435V13.5166V13.4898V13.4629V13.4361V13.4092V13.3824V13.3555V13.3287V13.3019V13.2751V13.2483V13.2216V13.1948V13.168V13.1413V13.1146V13.0878V13.0611V13.0345V13.0078V12.9811V12.9545V12.9278V12.9012V12.8746V12.8481V12.8215V12.7949V12.7684V12.7419V12.7154V12.689V12.6625V12.6361V12.6097V12.5833V12.5569V12.5306V12.5042V12.4779V12.4517V12.4254V12.3992V12.373V12.3468V12.3206V12.2945V12.2684V12.2423V12.2163V12.1902V12.1642V12.1383V12.1123V12.0864V12.0605V12.0347V12.0089V11.9831V11.9573V11.9316V11.9059V11.8802V11.8546V11.829V11.8034V11.7779V11.7524V11.7269V11.7015V11.6761V11.6507V11.6254V11.6001V11.5748V11.5496V11.5244V11.4993V11.4742V11.4492V11.4241V11.3992V11.3742V11.3493V11.3245V11.2996V11.2749V11.2501V11.2254V11.2008V11.1762V11.1516V11.1271V11.1027V11.0782V11.0539V11.0295V11.0052V10.981V10.9568V10.9327V10.9086V10.8845V10.8605V10.8366V10.8127V10.7888V10.765V10.7413V10.7176V10.6939V10.6704V10.6468V10.6233V10.5999V10.5765V10.5532V10.5299V10.5067V10.4836V10.4605V10.4374V10.4144V10.3915V10.3686V10.3458V10.323V10.3003V10.2777V10.2551V10.2326V10.2102V10.1878V10.1654V10.1431V10.1209V10.0988V10.0767V10.0547V10.0327V10.0108V9.98898V9.96722V9.94552V9.92388V9.90231V9.88081V9.85938V9.83801V9.81671V9.79548V9.77432V9.75323V9.7322V9.71125V9.69037V9.66956V9.64881V9.62815V9.60755V9.58702V9.56657V9.54619V9.52589V9.50566V9.4855V9.46542V9.44542V9.42549V9.40563V9.38586V9.36616V9.34653V9.32699V9.30752V9.28814V9.26883V9.2496V9.23045V9.21138V9.19239V9.17348V9.15466V9.13592V9.11725V9.09868V9.08018V9.06177V9.04344V9.0252V9.00704V8.98897V8.97098V8.95308V8.93526V8.91754V8.89989V8.88234V8.876C0.992815 8.33566 0.939959 7.4306 1.2698 6.62968C1.45164 6.18813 1.75681 5.75792 2.24313 5.44753ZM5.87669 14.5472H14.5058V12.5472H5.87669V14.5472Z" fill="#01B16B"/>
</svg>
